<!DOCTYPE svg PUBLIC "-//W3C//DTD SVG 1.1//EN" "http://www.w3.org/Graphics/SVG/1.1/DTD/svg11.dtd">
<!-- Uploaded to: SVG Repo, www.svgrepo.com, Transformed by: SVG Repo Mixer Tools -->
<svg fill="#b27f5c" version="1.1" id="Capa_1" xmlns="http://www.w3.org/2000/svg" xmlns:xlink="http://www.w3.org/1999/xlink" width="800px" height="800px" viewBox="0 0 50 50" xml:space="preserve" stroke="#b27f5c">
<g id="SVGRepo_bgCarrier" stroke-width="0"/>
<g id="SVGRepo_tracerCarrier" stroke-linecap="round" stroke-linejoin="round"/>
<g id="SVGRepo_iconCarrier"> <g> <path d="M37.448,20.62l3.557-4.826v-1.521h-2.667v-4.44c0,0-0.691-0.566-3.302-1.06l-0.72-2.402 c-0.014-0.043-0.039-0.081-0.075-0.11l-6.179-4.84c0.043-0.117,0.074-0.238,0.074-0.368c0-0.58-0.471-1.053-1.053-1.053 S26.03,0.473,26.03,1.053c0,0.581,0.472,1.054,1.053,1.054c0.289,0,0.553-0.118,0.742-0.308l6.086,4.769l0.636,2.121 C32.521,8.345,29.5,8.055,25,8.055c-11.174,0-13.337,1.778-13.337,1.778v4.44H8.996v1.521l3.557,4.826h0.887l1.751,24.373 l-3.528,3.819V50h26.674v-1.188l-3.528-3.819L36.56,20.62H37.448z"/> </g> </g>
</svg>